<svg xmlns="http://www.w3.org/2000/svg" xmlns:xlink="http://www.w3.org/1999/xlink" width="88" height="81" viewBox="0 0 88 81"><svg xmlns="http://www.w3.org/2000/svg" width="27" height="27" viewBox="-4 -4 27 27" x="60" y="28"><title>ico_add_323232_19x19</title><path d="M10.25 8.75h8a.75.75 0 1 1 0 1.5h-8v8a.75.75 0 1 1-1.5 0v-8h-8a.75.75 0 0 1 0-1.5h8v-8a.75.75 0 0 1 1.5 0v8z" fill="#bbb" fill-rule="evenodd"/></svg><svg xmlns="http://www.w3.org/2000/svg" width="21" height="21" viewBox="-4 -4 21 21" y="60"><title>ico_close_ffffff_13x13</title><defs><path d="M6.5 5.44L11.264.677a.75.75 0 0 1 1.06 1.06L7.56 6.5l4.764 4.765a.75.75 0 1 1-1.06 1.06L6.5 7.56l-4.765 4.765a.749.749 0 1 1-1.059-1.06L5.44 6.5.676 1.735A.75.75 0 0 1 1.735.676L6.5 5.441z" id="a"/></defs><use fill="#FFF" xlink:href="#a" fill-rule="evenodd"/></svg><svg xmlns="http://www.w3.org/2000/svg" width="21" height="21" viewBox="-4 -4 21 21" x="21" y="60"><title>ico_new_f53535_13x13</title><defs><path d="M6.5 13a6.5 6.5 0 1 0 0-13 6.5 6.5 0 0 0 0 13z" id="b"/><path d="M4 6.278a.507.507 0 0 1-.026-.032L1 2.3v4.2H0v-6h1v.213a.49.49 0 0 1 .162.14L4 4.619V.5h1v6H4v-.222z" id="c"/></defs><g fill="none" fill-rule="evenodd"><use fill="#F53535" xlink:href="#b"/><use fill="#FFF" xlink:href="#c" transform="translate(4 3)"/></g></svg><svg xmlns="http://www.w3.org/2000/svg" width="30" height="30" viewBox="-4 -4 30 30"><title>ico_send_off_dddddd_22x22</title><path d="M3.647 12.72l4.4-1.135a.5.5 0 0 0 0-.967L3.751 9.51.08 1.398A.906.906 0 0 1 .246.405.823.823 0 0 1 1.2.225L21.512 10.2a.88.88 0 0 1 .485.734c.028.36-.163.7-.485.862L1.2 21.772a.823.823 0 0 1-.954-.18.906.906 0 0 1-.166-.993l3.567-7.877v-.002z" fill="#bbb"/></svg><svg xmlns="http://www.w3.org/2000/svg" width="30" height="30" viewBox="-4 -4 30 30" x="30"><title>ico_send_on_dddddd_22x22</title><defs><path id="d" d="M0 0h22v22H0z"/></defs><g fill="none" fill-rule="evenodd"><mask id="e" fill="#fff"><use xlink:href="#d"/></mask><path d="M3.647 12.72l4.4-1.135a.5.5 0 0 0 0-.967L3.751 9.51.08 1.398A.906.906 0 0 1 .246.405.823.823 0 0 1 1.2.225L21.512 10.2a.88.88 0 0 1 .485.734c.028.36-.163.7-.485.862L1.2 21.772a.823.823 0 0 1-.954-.18.906.906 0 0 1-.166-.993l3.567-7.877v-.002z" fill="#03C75A" fill-rule="nonzero" mask="url(#e)"/></g></svg><svg xmlns="http://www.w3.org/2000/svg" width="30" height="30" viewBox="-4 -4 30 30" y="30"><title>ico_sticker_on_03c75a_22x22</title><path d="M11 20a9 9 0 1 0 0-18 9 9 0 0 0 0 18zm0 1.5C5.201 21.5.5 16.799.5 11S5.201.5 11 .5 21.5 5.201 21.5 11 16.799 21.5 11 21.5zm-3.59-7.036a.75.75 0 1 1 1.179-.928c.61.773 1.489 1.214 2.411 1.214.923 0 1.801-.441 2.411-1.214a.75.75 0 0 1 1.178.928c-.894 1.134-2.203 1.786-3.589 1.786-1.386 0-2.695-.652-3.59-1.786zM7.5 8a1 1 0 1 1 0 2 1 1 0 0 1 0-2zm7 0a1 1 0 1 1 0 2 1 1 0 0 1 0-2z" fill="#03C75A"/></svg><svg xmlns="http://www.w3.org/2000/svg" width="30" height="30" viewBox="-4 -4 30 30" x="30" y="30"><title>ico_sticker_on_222222_22x22</title><path d="M11 20a9 9 0 1 0 0-18 9 9 0 0 0 0 18zm0 1.5C5.201 21.5.5 16.799.5 11S5.201.5 11 .5 21.5 5.201 21.5 11 16.799 21.5 11 21.5zm-3.59-7.036a.75.75 0 1 1 1.179-.928c.61.773 1.489 1.214 2.411 1.214.923 0 1.801-.441 2.411-1.214a.75.75 0 0 1 1.178.928c-.894 1.134-2.203 1.786-3.589 1.786-1.386 0-2.695-.652-3.59-1.786zM7.5 8a1 1 0 1 1 0 2 1 1 0 0 1 0-2zm7 0a1 1 0 1 1 0 2 1 1 0 0 1 0-2z" fill="#fff"/></svg><svg xmlns="http://www.w3.org/2000/svg" width="28" height="28" viewBox="-4 -4 28 28" x="60"><title>ico_sticker_shop_000000_20x20</title><path xmlns="http://www.w3.org/2000/svg" d="M10.77 9.23h8.46a.77.77 0 1 1 0 1.54h-8.46v8.46a.77.77 0 1 1-1.54 0v-8.46H.77a.77.77 0 0 1 0-1.54h8.46V.77a.77.77 0 0 1 1.54 0v8.46z" fill-rule="evenodd" fill="#fff"/></svg></svg>